#N canvas 270 48 1440 856 10;
#X obj 263 397 unpack f f f f f f f f f f f f f f f f f f f f f f f f f f, f 133;
#X obj 196 158 loadbang;
#X obj 264 309 r bela_trill;
#X obj 56 243 s bela_setTrill;
#X text 372 336 We are working with Trill Craft;
#X text 372 310 This receives readings from the Trill sensor;
#X text 34 177 Initialise Trill sensor;
#X text 600 7 ............................;
#X text 600 17 . ____ ._____ _ .......___ .;
#X text 600 27 .| __ )| ____| |....../ _ |.;
#X text 600 47 .| |_) | |___| |___ / ___ |.;
#X text 600 57 .|____/|_____|_____/_/..._|.io;
#X text 600 67 ............................;
#X text 600 37 .| __ || __|.| |...../ _| |.;
#X text 30 28 Capacitive sensing with Trill Craft;
#X text 30 38 ====================================;
#X obj 205 243 s bela_setTrill;
#X text 364 236 [prescaler <sensor_id> <value>(;
#X text 368 257 value betwen 1 and 6;
#X text 364 214 Change sensitivity here;
#X obj 36 282 loadbang;
#X obj 36 303 metro 50;
#X msg 36 324 0;
#X obj 36 366 s bela_guiOut;
#X obj 36 345 list;
#X obj 196 179 t b b;
#X text 29 688 Every the time the programme is restarted the baseline;
#X text 29 708 reading of the sensor is reset.;
#X text 29 728 This means if you are touching anything connected to the;
#X text 29 748 sensor on start up this will be incorporated into the;
#X text 29 768 baseline.;
#X text 30 58 This example is for capacitive sensing with Trill Craft.;
#X msg 56 215 new mycraft 1 CRAFT;
#X msg 205 215 prescaler mycraft 2;
#X obj 264 336 route mycraft;
#X text 30 78 Connect the sensor via I2C and open the GUI to see readings.;
#X text 30 108 https://learn.bela.io/tutorials/pure-data/sensors/capacitive-sensing/;
#X obj 253 562 granular-delay;
#X obj 463 757 dac~, f 9;
#X obj 123 475 playAudioFile~;
#X obj 142 371 loadbang;
#X msg 185 443 one.wav;
#X obj 143 429 bng 16 250 50 0 empty empty empty 0 -8 0 10 #fcfcfc #000000 #000000;
#X obj 478 710 *~;
#X obj 467 505 vsl 16 136 0 127 0 0 empty empty empty 0 -9 0 10 #fcfcfc #000000 #000000 0 1;
#X connect 0 0 37 1;
#X connect 0 1 37 2;
#X connect 0 2 37 3;
#X connect 0 3 37 4;
#X connect 0 4 44 0;
#X connect 1 0 25 0;
#X connect 2 0 34 0;
#X connect 20 0 21 0;
#X connect 21 0 22 0;
#X connect 22 0 24 0;
#X connect 24 0 23 0;
#X connect 25 0 33 0;
#X connect 25 1 32 0;
#X connect 32 0 3 0;
#X connect 33 0 16 0;
#X connect 34 0 0 0;
#X connect 34 0 24 1;
#X connect 37 0 43 0;
#X connect 37 1 43 0;
#X connect 39 0 37 0;
#X connect 40 0 42 0;
#X connect 41 0 39 3;
#X connect 42 0 41 0;
#X connect 42 0 39 0;
#X connect 43 0 38 0;
#X connect 43 0 38 1;
#X connect 44 0 43 1;
