#N canvas 4 76 2560 1304 10;
#X obj 732 378 unpack f f f f f f f f f f f f f f f f f f f f f f f f f f, f 133;
#X obj 196 158 loadbang;
#X obj 701 309 r bela_trill;
#X obj 61 235 s bela_setTrill;
#X text 809 336 We are working with Trill Craft;
#X text 809 310 This receives readings from the Trill sensor;
#X text 36 158 Initialise Trill sensor;
#X text 600 7 ............................;
#X text 600 17 . ____ ._____ _ .......___ .;
#X text 600 27 .| __ )| ____| |....../ _ |.;
#X text 600 47 .| |_) | |___| |___ / ___ |.;
#X text 600 57 .|____/|_____|_____/_/..._|.io;
#X text 600 67 ............................;
#X text 600 37 .| __ || __|.| |...../ _| |.;
#X text 30 28 Capacitive sensing with Trill Craft;
#X text 30 38 ====================================;
#X obj 196 237 s bela_setTrill;
#X text 361 207 [prescaler <sensor_id> <value>(;
#X text 365 228 value betwen 1 and 6;
#X text 361 185 Change sensitivity here;
#X obj 238 310 loadbang;
#X obj 238 331 metro 50;
#X msg 238 352 0;
#X obj 238 394 s bela_guiOut;
#X obj 238 373 list;
#X obj 196 179 t b b;
#X text 1102 46 Every the time the programme is restarted the baseline;
#X text 1101 65 reading of the sensor is reset.;
#X text 1102 86 This means if you are touching anything connected to the;
#X text 1102 106 sensor on start up this will be incorporated into the;
#X text 1102 126 baseline.;
#X obj 2208 845 dac~ 1 2;
#X text 30 58 This example is for capacitive sensing with Trill Craft.;
#X msg 61 208 new mycraft 1 CRAFT;
#X msg 196 209 prescaler mycraft 2;
#X obj 701 336 route mycraft;
#X text 30 78 Connect the sensor via I2C and open the GUI to see readings.;
#X text 30 108 https://learn.bela.io/tutorials/pure-data/sensors/capacitive-sensing/;
#X obj 2209 423 cnv 16 400 300 empty c1 prototyping 20 12 0 14 #ffc7c6 #000000 0;
#X obj 2240 478 vsl 15 128 0 1 0 0 empty empty empty 0 -9 0 10 #faff00 #000000 #000000 0 1;
#X text 2155 606 0;
#X text 2154 480 1;
#X text 2208 539 0.5;
#X obj 2232 644 s a;
#X floatatom 2233 620 5 0 0 0 - - - 0;
#X text 2206 453 input 0;
#X obj 2286 481 vsl 15 128 0 1 0 0 empty empty empty 0 -9 0 10 #faff00 #000000 #000000 0 1;
#X text 2265 604 0;
#X text 2264 478 1;
#X text 2262 537 0.5;
#X floatatom 2286 620 5 0 0 0 - - - 0;
#X text 2263 452 input 3;
#X obj 2286 642 s b;
#X obj 2208 813 catch~ out;
#X obj 2343 484 vsl 15 128 0 1 0 0 empty empty empty 0 -9 0 10 #faff00 #000000 #000000 0 1;
#X floatatom 2341 622 5 0 0 0 - - - 0;
#X text 2312 453 input 6;
#X obj 242 515 change;
#X obj 325 462 loadbang;
#X obj 242 540 route 1 0;
#X obj 226 460 r a;
#X obj 2341 644 s c;
#X text 2321 607 0;
#X text 2320 481 1;
#X text 2318 540 0.5;
#X obj 2397 483 vsl 15 128 0 1 0 0 empty empty empty 0 -9 0 10 #faff00 #000000 #000000 0 1;
#X floatatom 2395 621 5 0 0 0 - - - 0;
#X text 2375 606 0;
#X text 2374 480 1;
#X text 2372 539 0.5;
#X text 2366 452 input 9;
#X obj 2456 483 vsl 15 128 0 1 0 0 empty empty empty 0 -9 0 10 #faff00 #000000 #000000 0 1;
#X floatatom 2454 621 5 0 0 0 - - - 0;
#X text 2434 606 0;
#X text 2433 480 1;
#X text 2431 539 0.5;
#X obj 2510 482 vsl 15 128 0 1 0 0 empty empty empty 0 -9 0 10 #faff00 #000000 #000000 0 1;
#X floatatom 2508 620 5 0 0 0 - - - 0;
#X text 2488 605 0;
#X text 2487 479 1;
#X text 2485 538 0.5;
#X obj 2395 643 s d;
#X obj 2454 642 s e;
#X obj 2508 643 s f;
#X obj 256 613 sample~, f 16;
#X obj 221 872 throw~ out;
#X obj 848 628 change;
#X obj 893 574 loadbang;
#X obj 848 653 route 1 0;
#X obj 848 699 sample~, f 16;
#X obj 849 895 throw~ out;
#X obj 823 532 r b;
#X obj 1186 640 change;
#X obj 1231 586 loadbang;
#X obj 1186 665 route 1 0;
#X obj 1186 711 sample~, f 16;
#X obj 1187 933 throw~ out;
#X obj 1436 603 change;
#X obj 1481 549 loadbang;
#X obj 1436 628 route 1 0;
#X obj 1436 674 sample~, f 16;
#X obj 1437 896 throw~ out;
#X obj 1147 546 r c;
#X obj 1359 554 r d;
#X obj 1681 603 change;
#X obj 1726 549 loadbang;
#X obj 1680 627 route 1 0;
#X obj 1681 674 sample~, f 16;
#X obj 1681 896 throw~ out;
#X obj 1962 605 change;
#X obj 2007 551 loadbang;
#X obj 1962 630 route 1 0;
#X obj 1962 673 sample~, f 16;
#X obj 1608 531 r e;
#X obj 1886 495 r f;
#X obj 848 604 > 0.1;
#X obj 1186 616 > 0.1;
#X obj 1436 579 > 0.1;
#X obj 1681 579 > 0.1;
#X obj 1962 581 > 0.1;
#X obj 242 491 > 0.1;
#X obj 221 847 lop~ 500;
#X obj 221 772 *~ 0.6;
#X obj 848 791 *~ 0.6;
#X obj 1186 829 *~ 0.6;
#X obj 1436 739 *~ 0.6;
#X obj 1681 739 *~ 0.6;
#X obj 1962 739 *~ 0.6;
#X obj 241 820 map 0 1 0 800;
#X obj 849 867 lop~ 500;
#X obj 869 840 map 0 1 0 800;
#X obj 1187 909 lop~ 500;
#X obj 1245 886 map 0 1 0 800;
#X obj 1437 871 lop~ 500;
#X obj 1457 844 map 0 1 0 800;
#X obj 1681 871 lop~ 500;
#X obj 1701 844 map 0 1 0 800;
#X msg 241 563 63;
#X msg 847 676 66;
#X msg 1185 691 68;
#X msg 1435 651 70;
#X msg 1680 651 73;
#X msg 1961 653 75;
#X text 2425 452 input 12;
#X text 2479 452 input 15;
#X text 90 459 inlet for prototyping;
#X text 39 490 if the input surpasses 0.1;
#X text 84 516 object outputs 1;
#X text 124 586 see help for info;
#X text 39 772 amp to level down the volume;
#X text -20 819 maps the input values to the filter freq.;
#X text 101 846 low pass filter;
#X text 51 873 sends output to catch~ out;
#X text 2228 691 move faders to simulate the inputs from the bela;
#X text 62 562 midi notes to control pitch;
#X msg 314 519 stomach3.wav;
#X msg 1231 610 bone1.wav;
#X msg 1481 573 craking.wav;
#X msg 1726 573 hearbeat2.wav;
#X msg 2007 575 stomach1.wav;
#X obj 18 619 line~;
#X msg 37 591 0 500;
#X obj 726 719 line~;
#X msg 745 691 0 500;
#X obj 1088 737 line~;
#X msg 1107 690 0 500;
#X obj 1306 743 line~;
#X msg 1322 707 0 500;
#X obj 1993 896 throw~ out;
#X obj 1993 871 lop~ 500;
#X obj 2013 844 map 0 1 0 800;
#X obj 1572 743 line~;
#X msg 1588 707 0 500;
#X obj 1840 747 line~;
#X msg 1856 711 0 500;
#X msg 893 598 hearbeat1.wav;
#X obj 990 574 loadbang;
#X msg 990 598 hearbeat1.wav;
#X obj 487 666 change;
#X obj 487 642 > 0.5;
#X floatatom 487 731 5 0 0 0 - - - 0;
#X obj 487 712 f;
#X obj 519 712 + 1;
#X floatatom 487 791 5 0 0 0 - - - 0;
#X obj 487 713;
#X obj 487 689 route 1 0;
#X msg 541 761 0.5;
#X obj 493 810 route 1 0;
#X obj 487 752 % 2;
#X obj 464 773 print in 1;
#X msg 414 518 hearbeat1.wav;
#X obj 493 615 r a;
#X text 357 614;
#X obj 447 901 bng 16 250 50 0 empty empty empty 0 -8 0 10 #fcfcfc #000000 #000000;
#X obj 545 847 bng 16 250 50 0 empty empty empty 0 -8 0 10 #fcfcfc #000000 #000000;
#X connect 0 0 120 0;
#X connect 0 0 128 0;
#X connect 0 0 179 0;
#X connect 0 3 115 0;
#X connect 0 3 130 0;
#X connect 0 6 116 0;
#X connect 0 6 132 0;
#X connect 0 9 117 0;
#X connect 0 9 134 0;
#X connect 0 12 118 0;
#X connect 0 12 136 0;
#X connect 0 15 119 0;
#X connect 0 15 170 0;
#X connect 1 0 25 0;
#X connect 2 0 35 0;
#X connect 20 0 21 0;
#X connect 21 0 22 0;
#X connect 22 0 24 0;
#X connect 24 0 23 0;
#X connect 25 0 34 0;
#X connect 25 1 33 0;
#X connect 33 0 3 0;
#X connect 34 0 16 0;
#X connect 35 0 0 0;
#X connect 35 0 24 1;
#X connect 39 0 44 0;
#X connect 44 0 43 0;
#X connect 46 0 50 0;
#X connect 50 0 52 0;
#X connect 53 0 31 0;
#X connect 53 0 31 1;
#X connect 54 0 55 0;
#X connect 55 0 61 0;
#X connect 57 0 59 0;
#X connect 58 0 155 0;
#X connect 59 0 137 0;
#X connect 60 0 120 0;
#X connect 60 0 122 1;
#X connect 65 0 66 0;
#X connect 66 0 81 0;
#X connect 71 0 72 0;
#X connect 72 0 82 0;
#X connect 76 0 77 0;
#X connect 77 0 83 0;
#X connect 84 0 122 0;
#X connect 84 1 122 0;
#X connect 86 0 88 0;
#X connect 87 0 175 0;
#X connect 88 0 138 0;
#X connect 89 0 123 0;
#X connect 89 1 123 0;
#X connect 91 0 115 0;
#X connect 91 0 123 1;
#X connect 92 0 94 0;
#X connect 93 0 156 0;
#X connect 94 0 139 0;
#X connect 95 0 124 0;
#X connect 95 1 124 0;
#X connect 97 0 99 0;
#X connect 98 0 157 0;
#X connect 99 0 140 0;
#X connect 100 0 125 0;
#X connect 100 1 125 0;
#X connect 102 0 116 0;
#X connect 102 0 124 1;
#X connect 103 0 117 0;
#X connect 103 0 125 1;
#X connect 104 0 106 0;
#X connect 105 0 158 0;
#X connect 106 0 141 0;
#X connect 107 0 126 0;
#X connect 107 1 126 0;
#X connect 109 0 111 0;
#X connect 110 0 159 0;
#X connect 111 0 142 0;
#X connect 112 0 127 0;
#X connect 112 1 127 0;
#X connect 113 0 118 0;
#X connect 113 0 126 1;
#X connect 114 0 119 0;
#X connect 114 0 127 1;
#X connect 115 0 86 0;
#X connect 116 0 92 0;
#X connect 117 0 97 0;
#X connect 118 0 104 0;
#X connect 119 0 109 0;
#X connect 120 0 57 0;
#X connect 121 0 85 0;
#X connect 122 0 121 0;
#X connect 123 0 129 0;
#X connect 124 0 131 0;
#X connect 125 0 133 0;
#X connect 126 0 135 0;
#X connect 127 0 169 0;
#X connect 128 0 121 1;
#X connect 129 0 90 0;
#X connect 130 0 129 1;
#X connect 131 0 96 0;
#X connect 132 0 131 1;
#X connect 133 0 101 0;
#X connect 134 0 133 1;
#X connect 135 0 108 0;
#X connect 136 0 135 1;
#X connect 137 0 84 0;
#X connect 138 0 89 0;
#X connect 139 0 95 0;
#X connect 140 0 100 0;
#X connect 141 0 107 0;
#X connect 142 0 112 0;
#X connect 155 0 84 2;
#X connect 156 0 95 2;
#X connect 157 0 100 2;
#X connect 158 0 107 2;
#X connect 159 0 112 2;
#X connect 160 0 122 0;
#X connect 161 0 160 0;
#X connect 162 0 123 0;
#X connect 163 0 162 0;
#X connect 164 0 124 0;
#X connect 165 0 164 0;
#X connect 166 0 133 0;
#X connect 167 0 166 0;
#X connect 169 0 168 0;
#X connect 170 0 169 1;
#X connect 171 0 135 0;
#X connect 172 0 171 0;
#X connect 173 0 169 0;
#X connect 174 0 173 0;
#X connect 175 0 89 2;
#X connect 176 0 177 0;
#X connect 178 0 185 0;
#X connect 179 0 178 0;
#X connect 180 0 188 0;
#X connect 181 0 182 0;
#X connect 181 0 180 0;
#X connect 182 0 181 1;
#X connect 183 0 187 0;
#X connect 185 0 181 0;
#X connect 187 0 155 0;
#X connect 187 1 190 0;
#X connect 188 0 183 0;
#X connect 188 0 189 0;
#X connect 190 0 84 2;
#X connect 191 0 179 0;
