#N canvas 239 145 835 545 12;
#X obj 427 289 dac~;
#X obj 433 182 playaudiofile~;
#X msg 326 106 1;
#X msg 377 106 0;
#X obj 429 249 *~;
#X msg 564 152 loop1.wav;
#X obj 566 117 loadbang;
#X msg 498 103 0.5;
#X obj 342 197 line~;
#X msg 327 156 1 500;
#X msg 377 156 0 500;
#X connect 1 0 4 0;
#X connect 2 0 1 0;
#X connect 2 0 9 0;
#X connect 3 0 10 0;
#X connect 4 0 0 0;
#X connect 4 0 0 1;
#X connect 5 0 1 3;
#X connect 6 0 5 0;
#X connect 7 0 1 2;
#X connect 8 0 4 1;
#X connect 9 0 8 0;
#X connect 10 0 8 0;
