#N canvas 239 145 835 545 12;
#X obj 294 146 noise~;
#X obj 289 244 *~;
#X obj 360 341 dac~;
#X obj 433 182 playaudiofile~;
#X msg 432 145 1;
#X msg 469 140 0;
#X obj 371 52 vsl 19 162 0 1 0 0 empty empty empty 0 -9 0 12 #fcfcfc #000000 #000000 0 1;
#X obj 429 249 *~;
#X obj 487 223 map 0 1 1 0;
#X floatatom 469 249 5 0 0 0 - - - 0;
#X floatatom 334 243 5 0 0 0 - - - 0;
#X msg 564 152 loop1.wav;
#X obj 566 117 loadbang;
#X msg 491 105 0.5;
#X obj 292 176 lop~ 800;
#X obj 293 205 *~ 0.3;
#X connect 0 0 14 0;
#X connect 1 0 2 0;
#X connect 1 0 2 1;
#X connect 3 0 7 0;
#X connect 4 0 3 0;
#X connect 5 0 3 1;
#X connect 6 0 8 0;
#X connect 6 0 1 1;
#X connect 6 0 10 0;
#X connect 7 0 2 0;
#X connect 7 0 2 1;
#X connect 8 0 9 0;
#X connect 9 0 7 1;
#X connect 11 0 3 3;
#X connect 12 0 11 0;
#X connect 13 0 3 2;
#X connect 14 0 15 0;
#X connect 15 0 1 0;
