#N canvas 63 88 916 440 12;
#X obj 433 182 playaudiofile~;
#X msg 432 145 1;
#X msg 469 140 0;
#X msg 564 152 loop1.wav;
#X obj 566 117 loadbang;
#X obj 436 266 dac~;
#X obj 321 51 lfos;
#X obj 254 32 vsl 19 162 0.2 20 0 0 empty empty empty 0 -9 0 12 #fcfcfc #000000 #000000 0 1;
#X floatatom 253 202 5 0 0 0 - - - 0;
#X floatatom 322 104 5 0 0 0 - - - 0;
#X obj 322 80 map 0 1 0.5 0.2;
#X connect 0 0 5 0;
#X connect 0 0 5 1;
#X connect 1 0 0 0;
#X connect 2 0 0 1;
#X connect 3 0 0 3;
#X connect 4 0 3 0;
#X connect 6 0 10 0;
#X connect 7 0 6 0;
#X connect 7 0 8 0;
#X connect 9 0 0 2;
#X connect 10 0 9 0;
