#N canvas 179 204 450 300 12;
#X obj 38 69 bng 19 250 50 0 empty empty empty 0 -10 0 12 #fcfcfc #000000 #000000;
#X msg 37 95 1 50;
#X obj 64 128 delay 50;
#X msg 64 156 0 50;
#X obj 36 186 line;
#X obj 130 119 *~;
#X obj 129 177 dac~;
#X obj 221 179 dac~;
#X obj 130 89 square~ 440;
#X obj 221 90 square~ 440;
#X obj 221 122 *~;
#X obj 349 70 bng 19 250 50 0 empty empty empty 0 -10 0 12 #fcfcfc #000000 #000000;
#X msg 348 96 1 50;
#X obj 375 129 delay 50;
#X msg 375 157 0 50;
#X obj 347 187 line;
#X connect 0 0 1 0;
#X connect 1 0 2 0;
#X connect 1 0 4 0;
#X connect 2 0 3 0;
#X connect 3 0 4 0;
#X connect 4 0 5 1;
#X connect 5 0 6 0;
#X connect 8 0 5 0;
#X connect 9 0 10 0;
#X connect 10 0 7 0;
#X connect 11 0 12 0;
#X connect 12 0 13 0;
#X connect 12 0 15 0;
#X connect 13 0 14 0;
#X connect 14 0 15 0;
#X connect 15 0 10 1;
