#N canvas 0 25 2560 1304 10;
#X obj 295 378 unpack f f f f f f f f f f f f f f f f f f f f f f f f f f, f 133;
#X obj 297 636 playAudioFile~;
#X obj 297 470 change;
#X obj 297 446 > 0.5;
#X obj 196 158 loadbang;
#X obj 264 309 r bela_trill;
#X obj 61 235 s bela_setTrill;
#X text 372 336 We are working with Trill Craft;
#X text 372 310 This receives readings from the Trill sensor;
#X text 36 158 Initialise Trill sensor;
#X text 600 7 ............................;
#X text 600 17 . ____ ._____ _ .......___ .;
#X text 600 27 .| __ )| ____| |....../ _ |.;
#X text 600 47 .| |_) | |___| |___ / ___ |.;
#X text 600 57 .|____/|_____|_____/_/..._|.io;
#X text 600 67 ............................;
#X text 600 37 .| __ || __|.| |...../ _| |.;
#X text 30 28 Capacitive sensing with Trill Craft;
#X text 30 38 ====================================;
#X obj 196 237 s bela_setTrill;
#X text 361 207 [prescaler <sensor_id> <value>(;
#X text 365 228 value betwen 1 and 6;
#X text 361 185 Change sensitivity here;
#X obj 131 310 loadbang;
#X obj 131 331 metro 50;
#X msg 131 352 0;
#X obj 131 394 s bela_guiOut;
#X obj 131 373 list;
#X obj 196 179 t b b;
#X text 1102 46 Every the time the programme is restarted the baseline;
#X text 1101 65 reading of the sensor is reset.;
#X text 1102 86 This means if you are touching anything connected to the;
#X text 1102 106 sensor on start up this will be incorporated into the;
#X text 1102 126 baseline.;
#X obj 1122 709 dac~ 1 2;
#X text 30 58 This example is for capacitive sensing with Trill Craft.;
#X msg 61 208 new mycraft 1 CRAFT;
#X msg 196 209 prescaler mycraft 2;
#X obj 264 336 route mycraft;
#X text 30 78 Connect the sensor via I2C and open the GUI to see readings.;
#X text 30 108 https://learn.bela.io/tutorials/pure-data/sensors/capacitive-sensing/;
#X obj 379 517 loadbang;
#X obj 1207 423 cnv 16 400 300 empty c1 prototyping 20 12 0 14 #ffc7c6 #000000 0;
#X obj 1231 479 vsl 15 128 0 1 0 0 empty empty empty 0 -9 0 10 #faff00 #000000 #000000 0 1;
#X text 1209 606 0;
#X text 1208 480 1;
#X text 1206 539 0.5;
#X obj 1230 644 s a;
#X obj 274 426 r a;
#X floatatom 1230 622 5 0 0 0 - - - 0;
#X text 1204 453 input 0;
#X obj 684 592 change;
#X obj 684 570 > 0.5;
#X obj 770 549 loadbang;
#X obj 1296 482 vsl 15 128 0 1 0 0 empty empty empty 0 -9 0 10 #faff00 #000000 #000000 0 1;
#X text 1275 605 0;
#X text 1274 479 1;
#X text 1272 538 0.5;
#X floatatom 1296 621 5 0 0 0 - - - 0;
#X text 1273 453 input 3;
#X obj 684 548 r b;
#X obj 1296 643 s b;
#X obj 297 704 throw~ out;
#X obj 1122 679 catch~ out;
#X obj 1372 483 vsl 15 128 0 1 0 0 empty empty empty 0 -9 0 10 #faff00 #000000 #000000 0 1;
#X floatatom 1370 621 5 0 0 0 - - - 0;
#X obj 1370 643 s d;
#X obj 798 614 r d;
#X obj 684 635 playAudioFile~;
#X obj 684 613 route 1 0;
#X obj 684 680 throw~ out;
#X text 1337 480 0.5;
#X text 1346 540 0, f 2;
#X text 1334 605 -0.5;
#X obj 684 657 *~ 0.5, f 8;
#X obj 992 561 *~ 0.2;
#X obj 1451 482 vsl 15 128 0 2000 0 0 empty empty empty 0 -9 0 10 #faff00 #000000 #000000 0 1;
#X floatatom 1451 621 5 0 0 0 - - - 0;
#X text 1341 452 input 6;
#X text 1420 453 input 9;
#X text 1496 452 input 12;
#X floatatom 297 535 5 0 0 0 - - - 0;
#X obj 297 516 f;
#X obj 329 516 + 1;
#X floatatom 297 595 5 0 0 0 - - - 0;
#X obj 297 517;
#X obj 297 493 route 1 0;
#X msg 990 493 1450 2000;
#X obj 990 515 line;
#X msg 1059 493 100 5000;
#X obj 990 447 change;
#X obj 990 424 > 0.5;
#X obj 991 470 route 1 0;
#X obj 742 445 map 0 0.6 0 0.35 0.6;
#X obj 297 659 hip~, f 9;
#X obj 418 639 map 0.256 1 0 5000;
#X msg 770 573 rhodes.wav;
#X msg 351 565 0.5;
#X obj 297 615 route 1 0;
#X obj 297 556 % 2;
#X obj 297 680 *~ 0.8;
#X obj 992 539 echo~ 100 1 0.8;
#X obj 992 584 throw~ out;
#X text 130 423 inlet for prototyping;
#X text 159 469 object outputs 1;
#X text 100 447 if the input surpasses 0.5;
#X text 142 514 adds on every count;
#X text 5 554 cuts out evreything above the second count;
#X text 179 597 output 0 or 1;
#X text 65 617 routes 1 / 0 to differnt outlets;
#X text 162 655 highpass filter;
#X text 58 636 1 starts playback of loop 0 stops;
#X text 42 678 multiplyer/amp to control the level;
#X text 101 704 sends output to catch~ out;
#X text 367 660 re-maps input to control filter;
#X text 539 446 re-maps input to control pitch;
#X text 1215 667 play loop;
#X text 1283 666 play chord;
#X text 1356 666 chord pitch;
#X obj 1451 643 s e;
#X text 1431 607 0;
#X text 1430 481 1;
#X text 1428 540 0.5;
#X obj 1526 482 vsl 15 128 0 5000 0 0 empty empty empty 0 -9 0 10 #faff00 #000000 #000000 0 1;
#X floatatom 1526 621 5 0 0 0 - - - 0;
#X obj 1526 643 s e;
#X text 1506 607 0;
#X text 1438 667 delay time;
#X text 1505 666 high pass filter;
#X text 1492 481 5000;
#X text 1493 542 2500;
#X obj 395 618 r e;
#X text 843 539 open help for more;
#X text 834 497 delay time changes;
#X text 894 517 envelope;
#X text 480 593 here direct stop at > 0.5 input;
#X text 1216 699 note differnent playback mechanism for inputs 0 and 3;
#X text 916 680 recieves from the throw outputs;
#X text 1064 648 prototyping outlets;
#X text 9 577 object to check values in the pd console;
#X obj 274 577 print in 1;
#X text 288 393 0;
#X text 326 394 1;
#X text 358 393 2;
#X text 390 394 3;
#X text 421 394 4;
#X msg 378 595 bird.wav;
#X connect 0 0 3 0;
#X connect 0 3 52 0;
#X connect 0 3 74 1;
#X connect 0 6 93 0;
#X connect 0 9 91 0;
#X connect 0 12 95 0;
#X connect 1 0 94 0;
#X connect 2 0 86 0;
#X connect 3 0 2 0;
#X connect 4 0 28 0;
#X connect 5 0 38 0;
#X connect 23 0 24 0;
#X connect 24 0 25 0;
#X connect 25 0 27 0;
#X connect 27 0 26 0;
#X connect 28 0 37 0;
#X connect 28 1 36 0;
#X connect 36 0 6 0;
#X connect 37 0 19 0;
#X connect 38 0 0 0;
#X connect 38 0 27 1;
#X connect 41 0 146 0;
#X connect 41 0 97 0;
#X connect 43 0 49 0;
#X connect 48 0 3 0;
#X connect 49 0 47 0;
#X connect 51 0 69 0;
#X connect 52 0 51 0;
#X connect 53 0 96 0;
#X connect 54 0 58 0;
#X connect 58 0 61 0;
#X connect 60 0 52 0;
#X connect 63 0 34 0;
#X connect 63 0 34 1;
#X connect 64 0 65 0;
#X connect 65 0 66 0;
#X connect 67 0 68 2;
#X connect 68 0 74 0;
#X connect 68 0 101 0;
#X connect 69 0 68 0;
#X connect 69 1 68 1;
#X connect 74 0 70 0;
#X connect 75 0 102 0;
#X connect 76 0 77 0;
#X connect 77 0 119 0;
#X connect 81 0 99 0;
#X connect 82 0 83 0;
#X connect 82 0 81 0;
#X connect 83 0 82 1;
#X connect 84 0 98 0;
#X connect 86 0 82 0;
#X connect 87 0 88 0;
#X connect 88 0 101 2;
#X connect 89 0 88 0;
#X connect 90 0 92 0;
#X connect 91 0 90 0;
#X connect 92 0 87 0;
#X connect 92 1 89 0;
#X connect 93 0 68 2;
#X connect 94 0 100 0;
#X connect 95 0 94 1;
#X connect 96 0 68 3;
#X connect 97 0 1 2;
#X connect 98 0 1 0;
#X connect 98 1 1 1;
#X connect 99 0 84 0;
#X connect 99 0 140 0;
#X connect 100 0 62 0;
#X connect 101 0 75 0;
#X connect 123 0 124 0;
#X connect 124 0 125 0;
#X connect 131 0 94 1;
#X connect 146 0 1 3;
