#N canvas 0 1 3834 2035 10;
#X obj 614 406 unpack f f f f f f f f f f f f f f f f f f f f f f f f f f, f 133;
#X obj 264 713 playAudioFile~;
#X obj 260 636 change;
#X obj 260 671 route 1 0;
#X obj 260 611 > 0.5;
#X obj 341 645 loadbang;
#X obj 464 713 playAudioFile~;
#X obj 460 636 change;
#X obj 460 671 route 1 0;
#X obj 541 645 loadbang;
#X msg 342 671 one.wav;
#X obj 644 713 playAudioFile~;
#X obj 640 636 change;
#X obj 640 671 route 1 0;
#X obj 721 645 loadbang;
#X obj 824 713 playAudioFile~;
#X obj 820 636 change;
#X obj 820 671 route 1 0;
#X obj 901 645 loadbang;
#X obj 196 158 loadbang;
#X obj 264 309 r bela_trill;
#X obj 56 243 s bela_setTrill;
#X text 372 336 We are working with Trill Craft;
#X text 372 310 This receives readings from the Trill sensor;
#X text 34 177 Initialise Trill sensor;
#X obj 264 744 throw~ output;
#X obj 464 744 throw~ output;
#X obj 644 744 throw~ output;
#X obj 824 744 throw~ output;
#X obj 611 850 catch~ output;
#X text 600 7 ............................;
#X text 600 17 . ____ ._____ _ .......___ .;
#X text 600 27 .| __ )| ____| |....../ _ |.;
#X text 600 47 .| |_) | |___| |___ / ___ |.;
#X text 600 57 .|____/|_____|_____/_/..._|.io;
#X text 600 67 ............................;
#X text 600 37 .| __ || __|.| |...../ _| |.;
#X text 30 28 Capacitive sensing with Trill Craft;
#X text 30 38 ====================================;
#X obj 205 243 s bela_setTrill;
#X text 364 236 [prescaler <sensor_id> <value>(;
#X text 368 257 value betwen 1 and 6;
#X text 364 214 Change sensitivity here;
#X obj 76 342 loadbang;
#X obj 76 363 metro 50;
#X msg 76 384 0;
#X obj 76 426 s bela_guiOut;
#X obj 76 405 list;
#X obj 196 179 t b b;
#X text 26 832 Every the time the programme is restarted the baseline;
#X text 26 852 reading of the sensor is reset.;
#X text 26 872 This means if you are touching anything connected to the;
#X text 26 892 sensor on start up this will be incorporated into the;
#X text 26 912 baseline.;
#X obj 611 886 dac~ 1 2;
#X text 30 58 This example is for capacitive sensing with Trill Craft.;
#X msg 56 215 new mycraft 1 CRAFT;
#X msg 205 215 prescaler mycraft 2;
#X obj 264 336 route mycraft;
#X text 30 78 Connect the sensor via I2C and open the GUI to see readings.;
#X text 30 108 https://learn.bela.io/tutorials/pure-data/sensors/capacitive-sensing/;
#X obj 1013 713 playAudioFile~;
#X obj 1009 636 change;
#X obj 1009 671 route 1 0;
#X obj 1090 645 loadbang;
#X obj 1213 713 playAudioFile~;
#X obj 1209 636 change;
#X obj 1209 671 route 1 0;
#X obj 1290 645 loadbang;
#X msg 1291 671 two.wav;
#X obj 1393 713 playAudioFile~;
#X obj 1389 636 change;
#X obj 1389 671 route 1 0;
#X obj 1470 645 loadbang;
#X msg 1471 671 three.wav;
#X obj 1573 713 playAudioFile~;
#X obj 1569 636 change;
#X obj 1569 671 route 1 0;
#X obj 1650 645 loadbang;
#X obj 1013 744 throw~ output;
#X obj 1213 744 throw~ output;
#X obj 1393 744 throw~ output;
#X obj 1573 744 throw~ output;
#X obj 1389 611 > 0.195;
#X msg 542 671 one.wav;
#X msg 722 671 two.wav;
#X msg 1651 671 seven.wav;
#X msg 86 644 0.5;
#X obj 87 607 loadbang;
#X obj 335 804 loadbang;
#X msg 1545 690 1;
#X msg 1628 581 0.5;
#X obj 1629 544 loadbang;
#X msg 142 561 0;
#X msg 152 571 0;
#X obj 1569 611 > 0.17;
#X obj 820 611 > 0.19;
#X obj 1209 611 > 0.19;
#X obj 460 611 > 0.19;
#X obj 640 611 > 0.19;
#X obj 1009 611 > 0.19;
#X msg 902 671 three.wav;
#X msg 1091 671 four.wav;
#X connect 0 0 4 0;
#X connect 0 1 98 0;
#X connect 0 2 99 0;
#X connect 0 3 96 0;
#X connect 0 4 100 0;
#X connect 0 5 97 0;
#X connect 0 6 83 0;
#X connect 0 7 95 0;
#X connect 1 0 25 0;
#X connect 2 0 3 0;
#X connect 3 0 1 0;
#X connect 3 1 1 1;
#X connect 4 0 2 0;
#X connect 5 0 10 0;
#X connect 6 0 26 0;
#X connect 7 0 8 0;
#X connect 8 0 6 0;
#X connect 8 1 6 1;
#X connect 9 0 84 0;
#X connect 10 0 1 3;
#X connect 11 0 27 0;
#X connect 12 0 13 0;
#X connect 13 0 11 0;
#X connect 13 1 11 1;
#X connect 14 0 85 0;
#X connect 15 0 28 0;
#X connect 16 0 17 0;
#X connect 17 0 15 0;
#X connect 17 1 15 1;
#X connect 18 0 101 0;
#X connect 19 0 48 0;
#X connect 20 0 58 0;
#X connect 29 0 54 0;
#X connect 29 0 54 1;
#X connect 43 0 44 0;
#X connect 44 0 45 0;
#X connect 45 0 47 0;
#X connect 47 0 46 0;
#X connect 48 0 57 0;
#X connect 48 1 56 0;
#X connect 56 0 21 0;
#X connect 57 0 39 0;
#X connect 58 0 0 0;
#X connect 58 0 47 1;
#X connect 61 0 79 0;
#X connect 62 0 63 0;
#X connect 63 0 61 0;
#X connect 63 1 61 1;
#X connect 64 0 102 0;
#X connect 65 0 80 0;
#X connect 66 0 67 0;
#X connect 67 0 65 0;
#X connect 67 1 65 1;
#X connect 68 0 69 0;
#X connect 69 0 65 3;
#X connect 70 0 81 0;
#X connect 71 0 72 0;
#X connect 72 0 70 0;
#X connect 72 1 70 1;
#X connect 73 0 74 0;
#X connect 74 0 70 3;
#X connect 75 0 82 0;
#X connect 76 0 77 0;
#X connect 77 0 75 0;
#X connect 77 1 75 1;
#X connect 78 0 86 0;
#X connect 83 0 71 0;
#X connect 84 0 6 3;
#X connect 85 0 11 3;
#X connect 86 0 75 3;
#X connect 87 0 1 2;
#X connect 88 0 87 0;
#X connect 90 0 75 0;
#X connect 91 0 75 2;
#X connect 92 0 91 0;
#X connect 93 0 1 1;
#X connect 94 0 75 1;
#X connect 95 0 76 0;
#X connect 96 0 16 0;
#X connect 97 0 66 0;
#X connect 98 0 7 0;
#X connect 99 0 12 0;
#X connect 100 0 62 0;
#X connect 101 0 15 3;
#X connect 102 0 61 3;
