#N canvas 25 46 1440 847 10;
#X obj 295 378 unpack f f f f f f f f f f f f f f f f f f f f f f f f f f, f 133;
#X obj 196 158 loadbang;
#X obj 264 309 r bela_trill;
#X obj 61 235 s bela_setTrill;
#X text 372 336 We are working with Trill Craft;
#X text 372 310 This receives readings from the Trill sensor;
#X text 36 158 Initialise Trill sensor;
#X text 600 7 ............................;
#X text 600 17 . ____ ._____ _ .......___ .;
#X text 600 27 .| __ )| ____| |....../ _ |.;
#X text 600 47 .| |_) | |___| |___ / ___ |.;
#X text 600 57 .|____/|_____|_____/_/..._|.io;
#X text 600 67 ............................;
#X text 600 37 .| __ || __|.| |...../ _| |.;
#X text 30 28 Capacitive sensing with Trill Craft;
#X text 30 38 ====================================;
#X obj 196 237 s bela_setTrill;
#X text 361 207 [prescaler <sensor_id> <value>(;
#X text 365 228 value betwen 1 and 6;
#X text 361 185 Change sensitivity here;
#X obj 131 310 loadbang;
#X obj 131 331 metro 50;
#X msg 131 352 0;
#X obj 131 394 s bela_guiOut;
#X obj 131 373 list;
#X obj 196 179 t b b;
#X text 1102 46 Every the time the programme is restarted the baseline;
#X text 1101 65 reading of the sensor is reset.;
#X text 1102 86 This means if you are touching anything connected to the;
#X text 1102 106 sensor on start up this will be incorporated into the;
#X text 1102 126 baseline.;
#X obj 1333 302 dac~ 1 2;
#X text 30 58 This example is for capacitive sensing with Trill Craft.;
#X msg 61 208 new mycraft 1 CRAFT;
#X msg 196 209 prescaler mycraft 2;
#X obj 264 336 route mycraft;
#X text 30 78 Connect the sensor via I2C and open the GUI to see readings.;
#X text 30 108 https://learn.bela.io/tutorials/pure-data/sensors/capacitive-sensing/;
#X obj 1207 423 cnv 16 400 300 empty c1 prototyping 20 12 0 14 #ffc7c6 #000000 0;
#X obj 1231 479 vsl 15 128 0 1 0 0 empty empty empty 0 -9 0 10 #faff00 #000000 #000000 0 1;
#X text 1209 606 0;
#X text 1208 480 1;
#X text 1206 539 0.5;
#X obj 1230 644 s a;
#X floatatom 1230 622 5 0 0 0 - - - 0;
#X text 1204 453 input 0;
#X obj 1296 482 vsl 15 128 0 1 0 0 empty empty empty 0 -9 0 10 #faff00 #000000 #000000 0 1;
#X text 1275 605 0;
#X text 1274 479 1;
#X text 1272 538 0.5;
#X floatatom 1296 621 5 0 0 0 - - - 0;
#X text 1273 453 input 3;
#X obj 1296 643 s b;
#X obj 1333 272 catch~ out;
#X obj 1372 483 vsl 15 128 0 1 0 0 empty empty empty 0 -9 0 10 #faff00 #000000 #000000 0 1;
#X floatatom 1370 621 5 0 0 0 - - - 0;
#X obj 1370 643 s d;
#X text 1337 480 0.5;
#X text 1346 540 0, f 2;
#X text 1334 605 -0.5;
#X obj 1451 482 vsl 15 128 0 2000 0 0 empty empty empty 0 -9 0 10 #faff00 #000000 #000000 0 1;
#X floatatom 1451 621 5 0 0 0 - - - 0;
#X text 1341 452 input 6;
#X text 1420 453 input 9;
#X text 1496 452 input 12;
#X text 1215 667 play loop;
#X text 1283 666 play chord;
#X text 1356 666 chord pitch;
#X obj 1451 643 s e;
#X text 1431 607 0;
#X text 1430 481 1;
#X text 1428 540 0.5;
#X obj 1526 482 vsl 15 128 0 5000 0 0 empty empty empty 0 -9 0 10 #faff00 #000000 #000000 0 1;
#X floatatom 1526 621 5 0 0 0 - - - 0;
#X obj 1526 643 s e;
#X text 1506 607 0;
#X text 1438 667 delay time;
#X text 1505 666 high pass filter;
#X text 1492 481 5000;
#X text 1493 542 2500;
#X text 1216 699 note differnent playback mechanism for inputs 0 and 3;
#X obj 432 652 change;
#X obj 432 630 > 0.5;
#X obj 504 546 loadbang;
#X obj 438 695 playAudioFile~;
#X obj 432 673 route 1 0;
#X obj 438 717 *~ 0.5;
#X obj 434 601 r a;
#X obj 1237 236 catch~ L;
#X obj 1441 233 catch~ R;
#X msg 492 639 0.5;
#X msg 520 667 ExoBrain_SFX_\$1.wav;
#X obj 574 548 random 10;
#X obj 574 570 + 1;
#X floatatom 575 592 5 0 0 0 - - - 0;
#X obj 574 611 t b i;
#X obj 577 638 int;
#X obj 574 503 change;
#X obj 575 460 r a;
#X obj 574 522 route 1 0;
#X obj 575 481 > 0.4;
#X msg 520 639 1;
#X obj 684 642 change;
#X obj 684 620 > 0.5;
#X obj 750 582 loadbang;
#X obj 689 685 playAudioFile~;
#X obj 684 663 route 1 0;
#X obj 689 707 *~ 0.5;
#X msg 743 625 0.5;
#X msg 770 658 ExoBrain_SFX_\$1.wav;
#X obj 809 540 random 10;
#X floatatom 810 584 5 0 0 0 - - - 0;
#X obj 809 603 t b i;
#X obj 812 630 int;
#X obj 809 495 change;
#X obj 809 514 route 1 0;
#X obj 810 473 > 0.4;
#X msg 771 627 1;
#X obj 809 562 + 10;
#X obj 949 642 change;
#X obj 949 620 > 0.5;
#X obj 1029 583 loadbang;
#X obj 967 684 playAudioFile~;
#X obj 949 663 route 1 0;
#X obj 967 706 *~ 0.5;
#X msg 1020 638 0.5;
#X msg 1049 660 ExoBrain_SFX_\$1.wav;
#X obj 1088 547 random 10;
#X floatatom 1089 591 5 0 0 0 - - - 0;
#X obj 968 741 throw~ out;
#X obj 1088 610 t b i;
#X obj 1091 637 int;
#X obj 1088 502 change;
#X obj 1088 521 route 1 0;
#X obj 1089 480 > 0.4;
#X msg 1052 635 1;
#X obj 1089 571 + 20;
#X obj 810 452 r b;
#X obj 686 591 r b;
#X obj 1089 460 r d;
#X obj 951 587 r d;
#X obj 438 739 throw~ out;
#X obj 689 730 throw~ out;
#X connect 0 6 82 0;
#X connect 0 6 100 0;
#X connect 0 15 103 0;
#X connect 0 15 116 0;
#X connect 0 25 120 0;
#X connect 0 25 134 0;
#X connect 1 0 25 0;
#X connect 2 0 35 0;
#X connect 20 0 21 0;
#X connect 21 0 22 0;
#X connect 22 0 24 0;
#X connect 24 0 23 0;
#X connect 25 0 34 0;
#X connect 25 1 33 0;
#X connect 33 0 3 0;
#X connect 34 0 16 0;
#X connect 35 0 0 0;
#X connect 35 0 24 1;
#X connect 39 0 44 0;
#X connect 44 0 43 0;
#X connect 46 0 50 0;
#X connect 50 0 52 0;
#X connect 53 0 31 0;
#X connect 53 0 31 1;
#X connect 54 0 55 0;
#X connect 55 0 56 0;
#X connect 60 0 61 0;
#X connect 61 0 68 0;
#X connect 72 0 73 0;
#X connect 73 0 74 0;
#X connect 81 0 85 0;
#X connect 82 0 81 0;
#X connect 83 0 90 0;
#X connect 83 0 101 0;
#X connect 84 0 86 0;
#X connect 85 0 84 0;
#X connect 85 1 84 1;
#X connect 86 0 141 0;
#X connect 87 0 82 0;
#X connect 88 0 31 0;
#X connect 89 0 31 1;
#X connect 90 0 84 2;
#X connect 91 0 84 3;
#X connect 92 0 93 0;
#X connect 93 0 94 0;
#X connect 94 0 95 0;
#X connect 95 0 96 0;
#X connect 95 1 96 1;
#X connect 96 0 91 0;
#X connect 97 0 99 0;
#X connect 98 0 100 0;
#X connect 99 0 92 0;
#X connect 99 1 92 0;
#X connect 100 0 97 0;
#X connect 101 0 91 0;
#X connect 102 0 106 0;
#X connect 103 0 102 0;
#X connect 104 0 108 0;
#X connect 104 0 117 0;
#X connect 105 0 107 0;
#X connect 106 0 105 0;
#X connect 106 1 105 1;
#X connect 107 0 142 0;
#X connect 108 0 105 2;
#X connect 109 0 105 3;
#X connect 110 0 118 0;
#X connect 111 0 112 0;
#X connect 112 0 113 0;
#X connect 112 1 113 1;
#X connect 113 0 109 0;
#X connect 114 0 115 0;
#X connect 115 0 110 0;
#X connect 115 1 110 0;
#X connect 116 0 114 0;
#X connect 117 0 109 0;
#X connect 118 0 111 0;
#X connect 119 0 123 0;
#X connect 120 0 119 0;
#X connect 121 0 125 0;
#X connect 121 0 135 0;
#X connect 122 0 124 0;
#X connect 123 0 122 0;
#X connect 123 1 122 1;
#X connect 124 0 129 0;
#X connect 125 0 122 2;
#X connect 126 0 122 3;
#X connect 127 0 136 0;
#X connect 128 0 130 0;
#X connect 130 0 131 0;
#X connect 130 1 131 1;
#X connect 131 0 126 0;
#X connect 132 0 133 0;
#X connect 133 0 127 0;
#X connect 133 1 127 0;
#X connect 134 0 132 0;
#X connect 135 0 126 0;
#X connect 136 0 128 0;
#X connect 137 0 116 0;
#X connect 138 0 103 0;
#X connect 139 0 134 0;
#X connect 140 0 120 0;
