#N canvas 598 207 550 529 10;
#X obj 85 167 route float;
#X obj 110 297 f;
#X obj 56 453 outlet;
#X obj 112 418 f;
#X obj 112 455 outlet;
#X obj 56 334 t b b;
#X obj 56 35 inlet;
#X obj 56 418 f;
#N canvas 0 22 450 300 once 0;
#X obj 110 75 inlet;
#X obj 105 187 spigot 1;
#X obj 110 104 t b f;
#X msg 125 151 0;
#X msg 165 99 1;
#X obj 165 63 inlet;
#X obj 102 219 outlet;
#X connect 0 0 2 0;
#X connect 1 0 6 0;
#X connect 2 0 3 0;
#X connect 2 1 1 0;
#X connect 3 0 1 1;
#X connect 4 0 1 1;
#X connect 5 0 4 0;
#X restore 177 245 pd once;
#X obj 71 297 max;
#X text 232 245 prime [min] and [max] with first item once;
#X obj 150 297 bang;
#X msg 279 297 0;
#X obj 105 333 change;
#X obj 137 391 f;
#X obj 105 362 bang;
#N canvas 917 609 301 314 cup 0;
#X obj 64 45 inlet;
#X obj 64 161 i;
#X obj 104 161 + 1;
#X obj 64 99 route bang setbang float;
#X obj 64 235 outlet;
#X connect 0 0 3 0;
#X connect 1 0 2 0;
#X connect 1 0 4 0;
#X connect 2 0 1 1;
#X connect 3 0 1 0;
#X connect 3 1 1 0;
#X connect 3 2 1 1;
#X restore 152 333 pd cup;
#N canvas 833 279 728 567 list-drip 0;
#X obj 73 94 t a a;
#X obj 73 251 spigot;
#X obj 112 159 bang;
#X obj 112 178 1;
#X obj 233 159 route bang;
#X obj 193 160 bang;
#X obj 193 179 0;
#X obj 112 124 list split 2;
#X obj 242 389 list split;
#X obj 309 338 list length;
#X obj 309 360 >> 1;
#X obj 73 270 t a a a a;
#X obj 73 456 list split;
#X obj 140 408 list length;
#X obj 140 433 >> 1;
#X obj 41 29 inlet;
#X obj 300 185 outlet;
#X text 83 29 Copyright 2009 by Mathieu Bouchard;
#X obj 41 63 t b a;
#X obj 475 129 outlet;
#X text 530 131 signal end of list;
#X text 391 33 made compatible with [list-drip]: fbar 2009;
#X connect 0 0 1 0;
#X connect 0 1 7 0;
#X connect 1 0 11 0;
#X connect 2 0 3 0;
#X connect 3 0 1 1;
#X connect 4 1 16 0;
#X connect 5 0 6 0;
#X connect 6 0 1 1;
#X connect 7 0 2 0;
#X connect 7 2 4 0;
#X connect 7 2 5 0;
#X connect 8 0 0 0;
#X connect 9 0 10 0;
#X connect 10 0 8 1;
#X connect 11 0 12 0;
#X connect 11 1 13 0;
#X connect 11 2 8 0;
#X connect 11 3 9 0;
#X connect 12 1 0 0;
#X connect 13 0 14 0;
#X connect 14 0 12 1;
#X connect 15 0 18 0;
#X connect 18 0 19 0;
#X connect 18 1 0 0;
#X restore 85 142 pd list-drip;
#X obj 56 73 trigger b a b b;
#X obj 71 194 trigger a a a;
#X connect 0 0 19 0;
#X connect 1 0 9 1;
#X connect 3 0 4 0;
#X connect 5 0 7 0;
#X connect 5 1 3 0;
#X connect 6 0 18 0;
#X connect 7 0 2 0;
#X connect 8 0 9 1;
#X connect 9 0 1 0;
#X connect 9 0 7 1;
#X connect 9 0 13 0;
#X connect 11 0 16 0;
#X connect 12 0 14 0;
#X connect 12 0 16 0;
#X connect 13 0 15 0;
#X connect 14 0 3 1;
#X connect 15 0 14 0;
#X connect 16 0 14 1;
#X connect 17 0 0 0;
#X connect 18 0 5 0;
#X connect 18 1 17 0;
#X connect 18 2 8 1;
#X connect 18 3 12 0;
#X connect 19 0 9 0;
#X connect 19 1 11 0;
#X connect 19 2 8 0;
