#N canvas 4 1 2560 1304 10;
#X obj 295 378 unpack f f f f f f f f f f f f f f f f f f f f f f f f f f, f 133;
#X obj 196 158 loadbang;
#X obj 264 309 r bela_trill;
#X obj 61 235 s bela_setTrill;
#X text 372 336 We are working with Trill Craft;
#X text 372 310 This receives readings from the Trill sensor;
#X text 36 158 Initialise Trill sensor;
#X text 600 7 ............................;
#X text 600 17 . ____ ._____ _ .......___ .;
#X text 600 27 .| __ )| ____| |....../ _ |.;
#X text 600 47 .| |_) | |___| |___ / ___ |.;
#X text 600 57 .|____/|_____|_____/_/..._|.io;
#X text 600 67 ............................;
#X text 600 37 .| __ || __|.| |...../ _| |.;
#X text 30 28 Capacitive sensing with Trill Craft;
#X text 30 38 ====================================;
#X obj 196 237 s bela_setTrill;
#X text 361 207 [prescaler <sensor_id> <value>(;
#X text 365 228 value betwen 1 and 6;
#X text 361 185 Change sensitivity here;
#X obj 131 310 loadbang;
#X obj 131 331 metro 50;
#X msg 131 352 0;
#X obj 131 394 s bela_guiOut;
#X obj 131 373 list;
#X obj 196 179 t b b;
#X text 1102 46 Every the time the programme is restarted the baseline;
#X text 1101 65 reading of the sensor is reset.;
#X text 1102 86 This means if you are touching anything connected to the;
#X text 1102 106 sensor on start up this will be incorporated into the;
#X text 1102 126 baseline.;
#X obj 1122 709 dac~ 1 2;
#X text 30 58 This example is for capacitive sensing with Trill Craft.;
#X msg 61 208 new mycraft 1 CRAFT;
#X msg 196 209 prescaler mycraft 2;
#X obj 264 336 route mycraft;
#X text 30 78 Connect the sensor via I2C and open the GUI to see readings.;
#X text 30 108 https://learn.bela.io/tutorials/pure-data/sensors/capacitive-sensing/;
#X obj 1207 423 cnv 16 400 300 empty c1 prototyping 20 12 0 14 #ffc7c6 #000000 0;
#X obj 1231 479 vsl 15 128 0 1 0 0 empty empty empty 0 -9 0 10 #faff00 #000000 #000000 0 1;
#X text 1209 606 0;
#X text 1208 480 1;
#X text 1206 539 0.5;
#X obj 1230 644 s a;
#X floatatom 1230 622 5 0 0 0 - - - 0;
#X text 1204 453 input 0;
#X obj 583 586 change;
#X obj 583 564 > 0.5;
#X obj 669 543 loadbang;
#X obj 1296 482 vsl 15 128 0 1 0 0 empty empty empty 0 -9 0 10 #faff00 #000000 #000000 0 1;
#X text 1275 605 0;
#X text 1274 479 1;
#X text 1272 538 0.5;
#X floatatom 1296 621 5 0 0 0 - - - 0;
#X text 1273 453 input 3;
#X obj 583 519 r b;
#X obj 1296 643 s b;
#X obj 1122 679 catch~ out;
#X obj 1372 483 vsl 15 128 0 1 0 0 empty empty empty 0 -9 0 10 #faff00 #000000 #000000 0 1;
#X floatatom 1370 621 5 0 0 0 - - - 0;
#X obj 1370 643 s d;
#X obj 697 608 r d;
#X obj 584 641 playAudioFile~;
#X obj 583 607 route 1 0;
#X obj 583 709 throw~ out;
#X text 1337 480 0.5;
#X text 1346 540 0, f 2;
#X text 1334 605 -0.5;
#X obj 585 678 *~ 0.5, f 8;
#X obj 1451 482 vsl 15 128 0 2000 0 0 empty empty empty 0 -9 0 10 #faff00 #000000 #000000 0 1;
#X floatatom 1451 621 5 0 0 0 - - - 0;
#X text 1341 452 input 6;
#X text 1420 453 input 9;
#X text 1496 452 input 12;
#X text 130 423 inlet for prototyping;
#X text 159 469 object outputs 1;
#X text 100 447 if the input surpasses 0.5;
#X text 142 514 adds on every count;
#X text 5 554 cuts out evreything above the second count;
#X text 179 597 output 0 or 1;
#X text 65 617 routes 1 / 0 to differnt outlets;
#X text 162 655 highpass filter;
#X text 58 636 1 starts playback of loop 0 stops;
#X text 42 678 multiplyer/amp to control the level;
#X text 101 704 sends output to catch~ out;
#X text 1215 667 play loop;
#X text 1283 666 play chord;
#X text 1356 666 chord pitch;
#X obj 1451 643 s e;
#X text 1431 607 0;
#X text 1430 481 1;
#X text 1428 540 0.5;
#X obj 1526 482 vsl 15 128 0 5000 0 0 empty empty empty 0 -9 0 10 #faff00 #000000 #000000 0 1;
#X floatatom 1526 621 5 0 0 0 - - - 0;
#X obj 1526 643 s e;
#X text 1506 607 0;
#X text 1438 667 delay time;
#X text 1505 666 high pass filter;
#X text 1492 481 5000;
#X text 1493 542 2500;
#X text 1216 699 note differnent playback mechanism for inputs 0 and 3;
#X text 916 680 recieves from the throw outputs;
#X text 1064 648 prototyping outlets;
#X text 9 577 object to check values in the pd console;
#X text 290 395 0;
#X text 326 394 1;
#X text 358 393 2;
#X text 390 394 3;
#X text 421 394 4;
#X msg 669 567 bird.wav;
#X obj 306 579 change;
#X obj 392 536 loadbang;
#X obj 327 513 r b, f 4;
#X obj 420 601 r d;
#X obj 307 637 playAudioFile~;
#X obj 306 600 route 1 0;
#X obj 322 687 throw~ out;
#X obj 319 663 *~ 0.5, f 8;
#X msg 392 560 water.wav;
#X text 454 395 5;
#X text 485 395 6;
#X text 516 396 7;
#X text 548 399 8;
#X obj 791 575 change;
#X obj 791 553 > 0.5;
#X obj 877 532 loadbang;
#X obj 791 522 r b;
#X obj 905 597 r d;
#X obj 791 618 playAudioFile~;
#X obj 791 596 route 1 0;
#X obj 791 663 throw~ out;
#X obj 791 640 *~ 0.5, f 8;
#X obj 306 557 > 0.2;
#X msg 877 556 rain.wav;
#X text 675 395 12;
#X obj 1001 513 change;
#X obj 1001 491 > 0.5;
#X obj 1087 470 loadbang;
#X obj 1001 469 r b;
#X obj 1115 535 r d;
#X obj 1001 556 playAudioFile~;
#X obj 1001 534 route 1 0;
#X obj 1001 601 throw~ out;
#X obj 1001 578 *~ 0.5, f 8;
#X text 1126 618 comment;
#X text 582 396 9;
#X text 611 398 10;
#X text 642 397 11;
#X msg 1087 494 campfire.wav;
#X connect 0 0 132 0;
#X connect 0 3 47 0;
#X connect 0 3 68 1;
#X connect 0 8 124 0;
#X connect 0 8 131 1;
#X connect 0 12 136 0;
#X connect 0 12 143 1;
#X connect 1 0 25 0;
#X connect 2 0 35 0;
#X connect 20 0 21 0;
#X connect 21 0 22 0;
#X connect 22 0 24 0;
#X connect 24 0 23 0;
#X connect 25 0 34 0;
#X connect 25 1 33 0;
#X connect 33 0 3 0;
#X connect 34 0 16 0;
#X connect 35 0 0 0;
#X connect 35 0 24 1;
#X connect 39 0 44 0;
#X connect 44 0 43 0;
#X connect 46 0 63 0;
#X connect 47 0 46 0;
#X connect 48 0 109 0;
#X connect 49 0 53 0;
#X connect 53 0 56 0;
#X connect 55 0 47 0;
#X connect 57 0 31 0;
#X connect 57 0 31 1;
#X connect 58 0 59 0;
#X connect 59 0 60 0;
#X connect 61 0 62 2;
#X connect 62 0 68 0;
#X connect 63 0 62 0;
#X connect 63 1 62 1;
#X connect 68 0 64 0;
#X connect 69 0 70 0;
#X connect 70 0 88 0;
#X connect 92 0 93 0;
#X connect 93 0 94 0;
#X connect 109 0 62 3;
#X connect 110 0 115 0;
#X connect 111 0 118 0;
#X connect 112 0 132 0;
#X connect 113 0 114 2;
#X connect 114 0 117 0;
#X connect 115 0 114 0;
#X connect 115 1 114 1;
#X connect 117 0 116 0;
#X connect 118 0 114 3;
#X connect 123 0 129 0;
#X connect 124 0 123 0;
#X connect 125 0 133 0;
#X connect 126 0 124 0;
#X connect 127 0 128 2;
#X connect 128 0 131 0;
#X connect 129 0 128 0;
#X connect 129 1 128 1;
#X connect 131 0 130 0;
#X connect 132 0 110 0;
#X connect 133 0 128 3;
#X connect 135 0 141 0;
#X connect 136 0 135 0;
#X connect 137 0 148 0;
#X connect 138 0 136 0;
#X connect 139 0 140 2;
#X connect 140 0 143 0;
#X connect 141 0 140 0;
#X connect 141 1 140 1;
#X connect 143 0 142 0;
#X connect 148 0 140 3;
