#N canvas 67 25 1026 847 10;
#X obj 295 378 unpack f f f f f f f f f f f f f f f f f f f f f f f f f f, f 133;
#X obj 299 485 change;
#X obj 196 158 loadbang;
#X obj 264 309 r bela_trill;
#X obj 61 235 s bela_setTrill;
#X text 372 336 We are working with Trill Craft;
#X text 372 310 This receives readings from the Trill sensor;
#X text 36 158 Initialise Trill sensor;
#X text 600 7 ............................;
#X text 600 17 . ____ ._____ _ .......___ .;
#X text 600 27 .| __ )| ____| |....../ _ |.;
#X text 600 47 .| |_) | |___| |___ / ___ |.;
#X text 600 57 .|____/|_____|_____/_/..._|.io;
#X text 600 67 ............................;
#X text 600 37 .| __ || __|.| |...../ _| |.;
#X text 30 28 Capacitive sensing with Trill Craft;
#X text 30 38 ====================================;
#X obj 196 237 s bela_setTrill;
#X text 361 207 [prescaler <sensor_id> <value>(;
#X text 365 228 value betwen 1 and 6;
#X text 361 185 Change sensitivity here;
#X obj 131 310 loadbang;
#X obj 131 331 metro 50;
#X msg 131 352 0;
#X obj 131 394 s bela_guiOut;
#X obj 131 373 list;
#X obj 196 179 t b b;
#X text 1102 46 Every the time the programme is restarted the baseline;
#X text 1101 65 reading of the sensor is reset.;
#X text 1102 86 This means if you are touching anything connected to the;
#X text 1102 106 sensor on start up this will be incorporated into the;
#X text 1102 126 baseline.;
#X obj 1122 709 dac~ 1 2;
#X text 30 58 This example is for capacitive sensing with Trill Craft.;
#X msg 61 208 new mycraft 1 CRAFT;
#X msg 196 209 prescaler mycraft 2;
#X obj 264 336 route mycraft;
#X text 30 78 Connect the sensor via I2C and open the GUI to see readings.;
#X text 30 108 https://learn.bela.io/tutorials/pure-data/sensors/capacitive-sensing/;
#X obj 1207 423 cnv 16 400 300 empty c1 prototyping 20 12 0 14 #ffc7c6 #000000 0;
#X obj 1231 479 vsl 15 128 0 1 0 0 empty empty empty 0 -9 0 10 #faff00 #000000 #000000 0 1;
#X text 1209 606 0;
#X text 1208 480 1;
#X text 1206 539 0.5;
#X obj 1230 644 s a;
#X obj 274 426 r a;
#X floatatom 1230 622 5 0 0 0 - - - 0;
#X text 1204 453 input 0;
#X text 1275 605 0;
#X text 1274 479 1;
#X text 1272 538 0.5;
#X obj 295 789 throw~ out;
#X obj 1122 679 catch~ out;
#X floatatom 296 601 5 0 0 0 - - - 0;
#X text 130 423 inlet for prototyping;
#X text 159 469 object outputs 1;
#X text 100 447 if the input surpasses 0.5;
#X text 142 514 adds on every count;
#X text 5 554 cuts out evreything above the second count;
#X text 179 597 output 0 or 1;
#X text 65 617 routes 1 / 0 to differnt outlets;
#X text 162 655 highpass filter;
#X text 58 636 1 starts playback of loop 0 stops;
#X text 42 678 multiplyer/amp to control the level;
#X text 101 704 sends output to catch~ out;
#X text 1215 667 play loop;
#X text 1216 699 note differnent playback mechanism for inputs 0 and 3;
#X text 919 677 recieves from the throw outputs;
#X text 1064 648 prototyping outlets;
#X text 9 577 object to check values in the pd console;
#X obj 340 599 print in 1;
#X obj 296 630 route 1 0;
#X obj 303 671 loadbang;
#X obj 297 446 > 0.5;
#X obj 295 733 playAudioFile~;
#X obj 465 471 change;
#X obj 465 777 throw~ out;
#X floatatom 465 596 5 0 0 0 - - - 0;
#X msg 475 689 0.5;
#X obj 465 616 route 1 0;
#X obj 475 651 loadbang;
#X obj 465 447 > 0.5;
#X obj 465 721 playAudioFile~;
#X obj 541 650 loadbang;
#X obj 1330 479 vsl 15 128 0 1 0 0 empty empty empty 0 -9 0 10 #faff00 #000000 #000000 0 1;
#X text 1308 606 0;
#X text 1307 480 1;
#X text 1305 539 0.5;
#X floatatom 1329 622 5 0 0 0 - - - 0;
#X text 1374 605 0;
#X text 1373 479 1;
#X text 1371 538 0.5;
#X obj 1329 644 s b;
#X obj 462 415 r b;
#X obj 639 473 change;
#X obj 639 779 throw~ out;
#X floatatom 639 598 5 0 0 0 - - - 0;
#X msg 693 698 0.5;
#X obj 639 618 route 1 0;
#X obj 693 660 loadbang;
#X obj 639 449 > 0.5;
#X obj 761 661 loadbang;
#X obj 369 672 loadbang;
#X obj 636 417 r c;
#X obj 639 723 playAudioFile~;
#X obj 639 755 *~ 1;
#X obj 465 753 *~ 1;
#X obj 295 765 *~ 1;
#X obj 1439 477 vsl 15 128 0 1 0 0 empty empty empty 0 -9 0 10 #faff00 #000000 #000000 0 1;
#X text 1417 604 0;
#X text 1416 478 1;
#X text 1414 537 0.5;
#X floatatom 1438 620 5 0 0 0 - - - 0;
#X text 1483 603 0;
#X text 1482 477 1;
#X text 1480 536 0.5;
#X obj 1438 642 s c;
#X msg 760 695 waves_0.wav;
#X msg 368 706 chains_0.wav;
#X obj 522 554 print in 2;
#X obj 696 590 print in 3;
#X msg 540 684 breath_0.wav;
#X msg 303 703 0.5;
#X obj 369 415 loadbang;
#X msg 370 445 1;
#X connect 0 1 73 0;
#X connect 0 4 81 0;
#X connect 0 6 100 0;
#X connect 1 0 53 0;
#X connect 1 0 70 0;
#X connect 2 0 26 0;
#X connect 3 0 36 0;
#X connect 21 0 22 0;
#X connect 22 0 23 0;
#X connect 23 0 25 0;
#X connect 25 0 24 0;
#X connect 26 0 35 0;
#X connect 26 1 34 0;
#X connect 34 0 4 0;
#X connect 35 0 17 0;
#X connect 36 0 0 0;
#X connect 36 0 25 1;
#X connect 40 0 46 0;
#X connect 45 0 73 0;
#X connect 46 0 44 0;
#X connect 52 0 32 0;
#X connect 52 0 32 1;
#X connect 53 0 71 0;
#X connect 71 0 74 0;
#X connect 71 1 74 1;
#X connect 72 0 122 0;
#X connect 73 0 1 0;
#X connect 74 0 107 0;
#X connect 75 0 119 0;
#X connect 75 0 77 0;
#X connect 77 0 79 0;
#X connect 78 0 82 2;
#X connect 79 0 82 0;
#X connect 79 1 82 1;
#X connect 80 0 78 0;
#X connect 81 0 75 0;
#X connect 82 0 106 0;
#X connect 83 0 121 0;
#X connect 84 0 88 0;
#X connect 88 0 92 0;
#X connect 93 0 81 0;
#X connect 94 0 96 0;
#X connect 94 0 120 0;
#X connect 96 0 98 0;
#X connect 97 0 104 2;
#X connect 98 0 104 0;
#X connect 98 1 104 1;
#X connect 99 0 97 0;
#X connect 100 0 94 0;
#X connect 101 0 117 0;
#X connect 102 0 118 0;
#X connect 103 0 100 0;
#X connect 104 0 105 0;
#X connect 105 0 95 0;
#X connect 106 0 76 0;
#X connect 107 0 51 0;
#X connect 108 0 112 0;
#X connect 112 0 116 0;
#X connect 117 0 104 3;
#X connect 118 0 74 3;
#X connect 121 0 82 3;
#X connect 122 0 74 2;
#X connect 123 0 124 0;
#X connect 124 0 73 0;
